<?xml version="1.0" encoding="UTF-8"?>
<svg width="200px" height="45px" viewBox="0 0 200 45" version="1.1" xmlns="http://www.w3.org/2000/svg" xmlns:xlink="http://www.w3.org/1999/xlink">
    <title>Logo</title>
    <defs>
        <filter id="filter-1">
            <feColorMatrix in="SourceGraphic" type="matrix" values="0 0 0 0 1.000000 0 0 0 0 1.000000 0 0 0 0 1.000000 0 0 0 1.000000 0"></feColorMatrix>
        </filter>
    </defs>
    <g id="Page-1" stroke="none" stroke-width="1" fill="none" fill-rule="evenodd">
        <g id="Login" transform="translate(-332.000000, -435.000000)">
            <g id="Left-bar" transform="translate(-32.000000, -264.000000)">
                <g id="logo-v1-svg-white" transform="translate(364.000000, 699.000000)" filter="url(#filter-1)">
                    <g>
                        <g id="Group">
                            <path d="M9.4225063,8.5608204 C9.37250898,9.40478006 9.43102857,10.2709113 9.43017634,11.024169 C9.40176877,13.7190235 9.52193279,16.16308 9.87077772,18.8291402 C10.0656536,20.3186671 10.1150828,21.878164 10.3681942,23.3725859 C10.6627807,25.1088796 11.2215576,26.7587905 12.4078576,28.1861218 C13.3879187,29.3658225 14.9662432,29.9157928 16.2826499,30.4605801 C19.9352951,31.975158 23.8470172,32.3647443 27.7615801,32.2340184 C30.6955137,32.1591533 33.5990513,31.5072514 36.3838452,30.4522298 C37.5559415,30.0229074 39.0561451,29.4795598 40.0049579,28.4469978 C41.3011953,27.0360792 42.0787104,25.1186697 42.5133462,23.0155372 C43.0962695,20.1968674 43.0689982,17.0384254 43.1425738,14.6027192 C43.18064,13.3412429 43.4644316,11.6132995 43.4539208,10.0172339 C43.4507959,9.55278254 43.4221043,9.09812123 43.3633006,8.66217618 C44.4524468,10.4759264 44.7575441,12.4975712 44.7575441,14.8284662 C51.9705097,15.9995286 55.083127,25.9162706 50.3578121,31.9411808 C49.2527577,33.3374143 47.6267085,34.4626938 45.9927052,34.9490288 C45.1115024,35.2110566 44.0766147,35.0555676 43.2752372,35.6363477 C41.6525969,36.8629831 40.4614675,38.9232121 38.8288846,40.2589777 C34.4904808,43.8090216 29.5754033,44.9795081 24.2543817,44.7079782 C20.2017581,44.5018114 15.9386343,42.3336039 12.8910704,39.465408 C11.6559093,38.3208363 10.7224366,36.6144886 9.41057512,35.6363477 C8.57510854,35.0129521 7.413239,35.2006906 6.46840328,34.8689808 C4.49208876,34.1940434 2.6961623,32.7560583 1.52775902,30.8547735 C-2.19249611,24.6582495 1.24027443,15.9180409 7.95042611,14.8284662 C7.95042611,12.4189628 8.0299673,10.3155424 9.4225063,8.5608204 Z" id="Path" fill="#6200ED"></path>
                            <path d="M23.7603741,0.050965834 C20.1938039,0.239568214 16.3494077,2.22320454 13.6322238,4.62867673 C12.7351128,5.41274434 11.527223,6.27542026 11.0982687,7.49543291 C10.7255615,8.58068844 10.9147559,9.93891352 10.9139036,11.0256088 C10.8863483,13.6608591 11.0019671,16.0381129 11.3414375,18.6313237 C11.7266442,21.5729449 11.5266549,24.7915669 13.5424559,27.217483 C14.3682639,28.2111728 15.7343839,28.6093974 16.8434153,29.0683778 C20.3017527,30.5023318 24.0072359,30.8547735 27.7127191,30.7309582 C30.4941041,30.6598364 33.2348663,30.039896 35.8645549,29.0436148 C36.8525701,28.681671 38.1292062,28.2817187 38.9192207,27.4219222 C41.724184,24.3691552 41.5409551,18.48908 41.6596988,14.5566484 C41.7221954,12.4797187 42.4681782,9.12403606 41.3972128,7.2227513 C40.6196977,5.8691333 39.2629522,4.79222811 38.0877311,3.88722463 C33.774326,0.566958911 28.9197567,-0.222579603 23.7740098,0.0495261212 L23.7603741,0.050965834 L23.7603741,0.050965834 Z M17.9964785,14.9718616 C19.7895642,14.9718616 21.2454521,17.5927148 21.2454521,20.8208389 C21.2454521,24.048963 19.7895642,26.6698163 17.9964785,26.6698163 C16.2031088,26.6698163 14.747505,24.048963 14.747505,20.8208389 C14.747505,17.5927148 16.2031088,14.9718616 17.9964785,14.9718616 L17.9964785,14.9718616 Z M34.6404727,14.9718616 C36.4338425,14.9718616 37.8897304,17.5927148 37.8897304,20.8208389 C37.8897304,24.048963 36.4338425,26.6698163 34.6404727,26.6698163 C32.847387,26.6698163 31.3914992,24.048963 31.3914992,20.8208389 C31.3914992,17.5927148 32.847387,14.9718616 34.6404727,14.9718616 L34.6404727,14.9718616 Z" id="Shape" fill="#212121" fill-rule="nonzero"></path>
                        </g>
                        <g id="Layer1" transform="translate(66.000000, 7.000000)" fill="#212121" fill-rule="nonzero">
                            <path d="M10.5147064,27.6077344 C12.0569555,27.6077344 13.486329,27.3347805 14.802539,26.7888728 C16.1190369,26.2432465 17.1493146,25.541727 17.8939479,24.6840328 L15.3810263,21.4485448 C14.7959162,22.0462293 14.0979304,22.5206625 13.2867811,22.871563 C12.4756318,23.222182 11.6181229,23.397773 10.7139664,23.397773 C9.27797008,23.397773 8.0680129,22.9818701 7.08409484,22.1503457 C6.10017679,21.3188214 5.48857539,20.2402315 5.24929067,18.9148577 L19.4097058,18.9148577 C19.4894673,18.6030712 19.5292042,18.0833333 19.5292042,17.355644 C19.5292042,16.0564399 19.2899194,14.8219569 18.81135,13.6524763 C18.3327805,12.4829957 17.6546632,11.4632176 16.7769979,10.5925792 C15.8996206,9.72194083 14.8690549,9.0463097 13.685589,8.5656858 C12.5024109,8.08478051 11.2458062,7.84446856 9.91635063,7.84446856 C9.27797008,7.84446856 8.5468703,7.92888728 7.72247539,8.09772471 C6.89808048,8.26656215 6.07368558,8.58510211 5.24929067,9.0527818 C4.42489576,9.52046149 3.68717318,10.0922576 3.03554702,10.7678887 C2.38392087,11.4435199 1.83883545,12.2038511 1.40000281,13.0483197 C0.961458121,13.8927882 0.662280227,14.7310661 0.502757077,15.5625904 C0.342945978,16.3941148 0.263184403,17.1218041 0.263184403,17.7453771 C0.263184403,19.0707509 0.516002681,20.3375945 1.02106334,21.5461891 C1.52641195,22.7545023 2.24455407,23.8133944 3.17520177,24.7231468 C4.10584946,25.6326178 5.20293105,26.3406094 6.46587065,26.8474031 C7.7290982,27.3541968 9.07871012,27.6077344 10.5147064,27.6077344 L10.5147064,27.6077344 Z M9.99611221,11.8985367 C11.1395534,11.8985367 12.1168487,12.2491558 12.92771,12.9509567 C13.7388593,13.6524763 14.277322,14.6401753 14.5433858,15.9134909 L5.32905224,15.9134909 C5.62160733,14.7181219 6.17993836,13.7501206 7.00433327,13.0094871 C7.82872818,12.2688535 8.82589184,11.8985367 9.99611221,11.8985367 Z" id="Shape"></path>
                            <path d="M23.7176947,8.39009487 L23.7176947,34.7020019 L28.5840146,34.7020019 L28.5840146,25.1908265 C30.0200109,26.8020984 31.9610679,27.6077344 34.4077614,27.6077344 C35.6842345,27.6077344 36.8941917,27.3606689 38.0376329,26.8671008 C39.1810741,26.3732513 40.1649922,25.6779225 40.9893871,24.7813957 C41.813494,23.8848689 42.4518746,22.8259768 42.9039528,21.6047194 C43.3560311,20.3831806 43.5820702,19.0839765 43.5820702,17.7065445 C43.5820702,16.303224 43.3427855,14.9907943 42.8639281,13.7695369 C42.3853586,12.5479981 41.7271097,11.4955781 40.8894692,10.6119955 C40.0518286,9.72841293 39.0679106,9.0463097 37.937715,8.5656858 C36.8075194,8.08478051 35.6309642,7.84446856 34.4077614,7.84446856 C33.2110498,7.84446856 32.120879,8.07183631 31.1369609,8.5265718 C30.1530428,8.98130728 29.3018688,9.6116337 28.5840146,10.4172697 L28.5840146,8.39009487 L23.7176947,8.39009487 Z M33.6498824,12.3271024 C34.7665445,12.3271024 35.7305941,12.6391703 36.5417434,13.2627432 C37.3528927,13.8863161 37.9178466,14.6140055 38.2368929,15.4455298 C38.5559392,16.2773356 38.7157503,17.0438575 38.7157503,17.7453771 C38.7157503,18.447178 38.5559392,19.2072279 38.2368929,20.025808 C37.9178466,20.8443882 37.3528927,21.5656054 36.5417434,22.1891783 C35.7305941,22.8130326 34.7665445,23.1248191 33.6498824,23.1248191 C32.2138861,23.1248191 31.0105518,22.6050812 30.0398793,21.5656054 C29.0692068,20.5261296 28.5840146,19.252814 28.5840146,17.7453771 C28.5840146,17.0438575 28.7435377,16.2773356 29.062584,15.4455298 C29.3816303,14.6140055 29.9534949,13.8863161 30.7778898,13.2627432 C31.6022847,12.6391703 32.5594236,12.3271024 33.6498824,12.3271024 Z" id="Shape"></path>
                            <path d="M52.9159022,8.39009487 L48.0495823,8.39009487 L48.0495823,27.0618267 L52.9159022,27.0618267 L52.9159022,8.39009487 Z M50.4427175,5.85640778 C51.2406212,5.85640778 51.9187385,5.58345393 52.4770695,5.03782763 C53.0354006,4.49220132 53.3147101,3.84245859 53.3147101,3.08888085 C53.3147101,2.3353031 53.0287778,1.67908828 52.4572011,1.12023637 C51.8853366,0.561665863 51.213842,0.28223991 50.4427175,0.28223991 C49.6715929,0.28223991 49.0067212,0.561665863 48.4483901,1.12023637 C47.8900591,1.67908828 47.6107496,2.33502171 47.6107496,3.08888085 C47.6107496,3.84245859 47.8900591,4.49220132 48.4483901,5.03782763 C49.0067212,5.58345393 49.6715929,5.85640778 50.4427175,5.85640778 Z" id="Shape"></path>
                            <rect id="Rectangle" x="58.6198626" y="0.243125904" width="4.86631993" height="26.8187008"></rect>
                            <path d="M74.0567509,8.39009487 L69.190143,8.39009487 L69.190143,27.0618267 L74.0567509,27.0618267 L74.0567509,8.39009487 Z M71.5835661,5.85640778 C72.3814698,5.85640778 73.0595872,5.58345393 73.6179182,5.03782763 C74.1762493,4.49220132 74.4555587,3.84245859 74.4555587,3.08888085 C74.4555587,2.3353031 74.1696265,1.67908828 73.5980498,1.12023637 C73.0261852,0.561665863 72.3546907,0.28223991 71.5835661,0.28223991 C70.8124416,0.28223991 70.1475698,0.561665863 69.5892388,1.12023637 C69.0306198,1.67908828 68.7515983,2.33502171 68.7515983,3.08888085 C68.7515983,3.84245859 69.0306198,4.49220132 69.5892388,5.03782763 C70.1475698,5.58345393 70.8124416,5.85640778 71.5835661,5.85640778 Z" id="Shape"></path>
                            <path d="M93.4822938,27.0618267 L98.3886385,27.0618267 L98.3886385,8.39009487 L93.4822938,8.39009487 L93.4822938,10.261095 C92.0462975,8.65010452 90.1049526,7.84446856 87.658547,7.84446856 C86.3820738,7.84446856 85.1721167,8.09125261 84.0286754,8.58510211 C82.8852342,9.0786702 81.9013162,9.77399904 81.0769213,10.6705258 C80.2525264,11.5670526 79.6144338,12.6259447 79.1623555,13.8474835 C78.7102773,15.068741 78.4842382,16.3682264 78.4842382,17.7453771 C78.4842382,19.1486975 78.7235229,20.4611272 79.2023803,21.682666 C79.6809497,22.9039235 80.3391987,23.9563435 81.1768392,24.839926 C82.0144797,25.7235086 82.9983978,26.4056118 84.1285934,26.8865171 C85.258501,27.367141 86.4353442,27.6077344 87.658547,27.6077344 C88.8552586,27.6077344 89.9454294,27.3800852 90.9293475,26.9253497 C91.9132655,26.4706142 92.7641516,25.8405692 93.4822938,25.0349333 L93.4822938,27.0618267 L93.4822938,27.0618267 Z M88.4564507,23.1248191 C87.3395007,23.1248191 86.3688282,22.8130326 85.5444333,22.1891783 C84.7200384,21.5656054 84.1484618,20.8379161 83.8294155,20.0063917 C83.5100812,19.1748673 83.3505581,18.408064 83.3505581,17.7065445 C83.3505581,17.0047435 83.5100812,16.2446937 83.8294155,15.4261135 C84.1484618,14.6075334 84.7200384,13.8863161 85.5444333,13.2627432 C86.3688282,12.6391703 87.3395007,12.3271024 88.4564507,12.3271024 C89.892447,12.3271024 91.0888706,12.8468403 92.0462975,13.8863161 C93.0037243,14.9257919 93.4822938,16.199389 93.4822938,17.7065445 C93.4822938,18.7980785 93.2029843,19.7984403 92.6446533,20.7079112 C92.0860343,21.6176636 91.4214505,22.2477086 90.6503259,22.5986091 C89.8789134,22.9495096 89.1478137,23.1248191 88.4564507,23.1248191 L88.4564507,23.1248191 Z" id="Shape"></path>
                            <path d="M108.958919,16.4591172 C108.958919,15.21169 109.304744,14.2113282 109.996107,13.4577504 C110.68747,12.7038913 111.604872,12.3271024 112.748314,12.3271024 C113.865264,12.3271024 114.76942,12.7038913 115.460783,13.4577504 C116.152146,14.2113282 116.497683,15.21169 116.497683,16.4591172 L116.497683,27.0618267 L121.364291,27.0618267 L121.364291,16.4591172 C121.364003,15.21169 121.709829,14.2113282 122.401192,13.4577504 C123.092555,12.7038913 124.010245,12.3271024 125.153686,12.3271024 C126.270348,12.3271024 127.174505,12.7038913 127.865868,13.4577504 C128.557518,14.2113282 128.903056,15.21169 128.903056,16.4591172 L128.903056,27.0618267 L133.769376,27.0618267 L133.769376,15.7575977 C133.769376,13.2886316 133.104504,11.352629 131.775049,9.94930857 C130.445305,8.5459881 128.663771,7.84446856 126.429871,7.84446856 C125.738508,7.84446856 125.000786,7.95477569 124.216128,8.17567133 C123.431757,8.39656697 122.70037,8.78658144 122.022252,9.34515195 C121.344135,9.90400386 120.779181,10.5469931 120.327103,11.2746824 C119.741993,10.1831484 118.917598,9.33867985 117.853918,8.74099534 C116.790239,8.14331082 115.580281,7.84446856 114.224047,7.84446856 C113.133876,7.84446856 112.130089,8.07183631 111.212687,8.5265718 C110.295285,8.98130728 109.544029,9.5984081 108.958919,10.3781557 L108.958919,8.39009487 L104.092599,8.39009487 L104.092599,27.0618267 L108.958919,27.0618267 L108.958919,16.4591172 L108.958919,16.4591172 Z" id="Path"></path>
                        </g>
                    </g>
                </g>
            </g>
        </g>
    </g>
</svg>