<?xml version="1.0" encoding="UTF-8" standalone="no"?><!DOCTYPE svg PUBLIC "-//W3C//DTD SVG 1.1//EN" "http://www.w3.org/Graphics/SVG/1.1/DTD/svg11.dtd"><svg width="100%" height="100%" viewBox="0 0 691 156" version="1.1" xmlns="http://www.w3.org/2000/svg" xmlns:xlink="http://www.w3.org/1999/xlink" xml:space="preserve" xmlns:serif="http://www.serif.com/" style="fill-rule:evenodd;clip-rule:evenodd;stroke-linejoin:round;stroke-miterlimit:2;"><g><path d="M33.169,29.731c-0.176,2.931 0.03,5.939 0.027,8.555c-0.1,9.359 0.323,17.847 1.551,27.106c0.686,5.173 0.86,10.589 1.751,15.779c1.037,6.03 3.004,11.76 7.18,16.717c3.45,4.097 9.006,6.007 13.64,7.899c12.858,5.26 26.628,6.613 40.408,6.159c10.328,-0.26 20.549,-2.524 30.352,-6.188c4.126,-1.491 9.407,-3.378 12.747,-6.964c4.563,-4.9 7.3,-11.559 8.83,-18.863c2.052,-9.789 1.956,-20.758 2.215,-29.217c0.134,-4.381 1.133,-10.382 1.096,-15.925c-0.011,-1.613 -0.112,-3.192 -0.319,-4.706c3.834,6.299 4.908,13.32 4.908,21.415c25.391,4.067 36.348,38.507 19.714,59.431c-3.89,4.849 -9.614,8.757 -15.366,10.446c-3.102,0.91 -6.745,0.37 -9.566,2.387c-5.712,4.26 -9.905,11.415 -15.652,16.054c-15.272,12.329 -32.574,16.394 -51.305,15.451c-14.266,-0.716 -29.273,-8.246 -40.001,-18.207c-4.348,-3.975 -7.634,-9.901 -12.252,-13.298c-2.941,-2.165 -7.031,-1.513 -10.357,-2.665c-6.957,-2.344 -13.279,-7.338 -17.392,-13.941c-13.096,-21.52 -1.012,-51.874 22.609,-55.658c0,-8.368 0.28,-15.673 5.182,-21.767Z" style="fill:#6200ed;"/><path d="M83.641,0.177c-12.555,0.655 -26.088,7.544 -35.653,15.898c-3.158,2.723 -7.41,5.719 -8.92,9.956c-1.312,3.769 -0.646,8.486 -0.649,12.26c-0.097,9.152 0.31,17.408 1.505,26.414c1.356,10.216 0.652,21.394 7.748,29.819c2.907,3.451 7.716,4.834 11.62,6.428c12.174,4.98 25.218,6.204 38.262,5.774c9.791,-0.247 19.439,-2.4 28.696,-5.86c3.478,-1.257 7.972,-2.646 10.753,-5.632c9.874,-10.602 9.229,-31.023 9.647,-44.68c0.22,-7.213 2.846,-18.867 -0.924,-25.47c-2.737,-4.701 -7.513,-8.441 -11.65,-11.584c-15.184,-11.531 -32.273,-14.273 -50.387,-13.328l-0.048,0.005Zm-20.29,51.819c6.312,0 11.437,9.102 11.437,20.313c-0,11.211 -5.125,20.313 -11.437,20.313c-6.313,0 -11.437,-9.102 -11.437,-20.313c-0,-11.211 5.124,-20.313 11.437,-20.313Zm58.59,0c6.313,0 11.438,9.102 11.438,20.313c-0,11.211 -5.125,20.313 -11.438,20.313c-6.312,0 -11.437,-9.102 -11.437,-20.313c0,-11.211 5.125,-20.313 11.437,-20.313Z" style="fill:#212121;fill-rule:nonzero;"/></g><g id="Layer1"><path d="M262.516,119.11c5.356,-0 10.32,-0.97 14.891,-2.91c4.572,-1.939 8.15,-4.432 10.736,-7.48l-8.727,-11.498c-2.032,2.124 -4.456,3.81 -7.273,5.057c-2.817,1.246 -5.795,1.87 -8.935,1.87c-4.987,-0 -9.189,-1.478 -12.606,-4.433c-3.417,-2.955 -5.541,-6.788 -6.372,-11.498l49.177,0c0.277,-1.108 0.415,-2.955 0.415,-5.541c0,-4.617 -0.831,-9.004 -2.493,-13.16c-1.662,-4.156 -4.017,-7.78 -7.065,-10.874c-3.047,-3.094 -6.626,-5.495 -10.736,-7.203c-4.109,-1.709 -8.473,-2.563 -13.09,-2.563c-2.217,-0 -4.756,0.3 -7.619,0.9c-2.863,0.6 -5.726,1.732 -8.589,3.394c-2.863,1.662 -5.425,3.694 -7.688,6.095c-2.263,2.401 -4.156,5.103 -5.68,8.104c-1.523,3.001 -2.562,5.98 -3.116,8.935c-0.555,2.955 -0.832,5.541 -0.832,7.757c0,4.71 0.878,9.212 2.632,13.507c1.755,4.294 4.249,8.057 7.481,11.29c3.232,3.232 7.042,5.748 11.428,7.549c4.387,1.801 9.074,2.702 14.061,2.702Zm-1.801,-55.826c3.971,-0 7.365,1.246 10.181,3.74c2.817,2.493 4.687,6.003 5.611,10.528l-32,-0c1.016,-4.248 2.955,-7.688 5.818,-10.32c2.863,-2.632 6.326,-3.948 10.39,-3.948Z" style="fill:#212121;fill-rule:nonzero;"/><path d="M308.368,50.816l-0,93.505l16.9,0l-0,-33.8c4.987,5.726 11.728,8.589 20.225,8.589c4.433,-0 8.635,-0.878 12.606,-2.632c3.971,-1.755 7.388,-4.226 10.251,-7.412c2.862,-3.186 5.079,-6.949 6.649,-11.289c1.57,-4.341 2.355,-8.958 2.355,-13.853c-0,-4.987 -0.831,-9.651 -2.494,-13.991c-1.662,-4.341 -3.948,-8.081 -6.857,-11.221c-2.909,-3.14 -6.326,-5.564 -10.251,-7.272c-3.925,-1.709 -8.011,-2.563 -12.259,-2.563c-4.156,-0 -7.942,0.808 -11.359,2.424c-3.417,1.616 -6.373,3.856 -8.866,6.719l-0,-7.204l-16.9,0Zm34.493,13.991c3.878,0 7.226,1.109 10.043,3.325c2.817,2.216 4.779,4.802 5.887,7.757c1.108,2.956 1.663,5.68 1.663,8.173c-0,2.494 -0.555,5.195 -1.663,8.104c-1.108,2.909 -3.07,5.472 -5.887,7.688c-2.817,2.217 -6.165,3.325 -10.043,3.325c-4.987,0 -9.166,-1.847 -12.537,-5.541c-3.371,-3.694 -5.056,-8.219 -5.056,-13.576c-0,-2.493 0.554,-5.217 1.662,-8.173c1.108,-2.955 3.094,-5.541 5.957,-7.757c2.863,-2.216 6.187,-3.325 9.974,-3.325Z" style="fill:#212121;fill-rule:nonzero;"/><path d="M409.769,50.816l-16.9,0l-0,66.354l16.9,0l-0,-66.354Zm-8.589,-9.004c2.771,-0 5.126,-0.97 7.065,-2.909c1.939,-1.939 2.909,-4.248 2.909,-6.926c0,-2.678 -0.993,-5.01 -2.978,-6.996c-1.986,-1.985 -4.318,-2.978 -6.996,-2.978c-2.678,-0 -4.987,0.993 -6.926,2.978c-1.939,1.986 -2.909,4.317 -2.909,6.996c-0,2.678 0.97,4.987 2.909,6.926c1.939,1.939 4.248,2.909 6.926,2.909Z" style="fill:#212121;fill-rule:nonzero;"/><rect x="429.578" y="21.864" width="16.9" height="95.306" style="fill:#212121;fill-rule:nonzero;"/><path d="M483.188,50.816l-16.901,0l0,66.354l16.901,0l-0,-66.354Zm-8.589,-9.004c2.771,-0 5.126,-0.97 7.065,-2.909c1.939,-1.939 2.909,-4.248 2.909,-6.926c-0,-2.678 -0.993,-5.01 -2.978,-6.996c-1.986,-1.985 -4.318,-2.978 -6.996,-2.978c-2.678,-0 -4.987,0.993 -6.926,2.978c-1.94,1.986 -2.909,4.317 -2.909,6.996c-0,2.678 0.969,4.987 2.909,6.926c1.939,1.939 4.248,2.909 6.926,2.909Z" style="fill:#212121;fill-rule:nonzero;"/><path d="M550.65,117.17l17.039,0l-0,-66.354l-17.039,0l-0,6.649c-4.987,-5.725 -11.729,-8.588 -20.225,-8.588c-4.433,-0 -8.635,0.877 -12.606,2.632c-3.971,1.754 -7.388,4.225 -10.251,7.411c-2.863,3.186 -5.079,6.949 -6.649,11.29c-1.57,4.34 -2.355,8.958 -2.355,13.852c0,4.987 0.831,9.651 2.494,13.992c1.662,4.34 3.948,8.08 6.857,11.22c2.909,3.14 6.326,5.564 10.251,7.273c3.924,1.708 8.011,2.563 12.259,2.563c4.156,-0 7.942,-0.809 11.359,-2.425c3.417,-1.616 6.372,-3.855 8.866,-6.718l-0,7.203Zm-17.454,-13.991c-3.879,0 -7.25,-1.108 -10.113,-3.325c-2.863,-2.216 -4.848,-4.802 -5.956,-7.757c-1.109,-2.955 -1.663,-5.68 -1.663,-8.173c0,-2.494 0.554,-5.195 1.663,-8.104c1.108,-2.909 3.093,-5.472 5.956,-7.688c2.863,-2.216 6.234,-3.325 10.113,-3.325c4.987,0 9.142,1.847 12.467,5.541c3.325,3.694 4.987,8.22 4.987,13.576c-0,3.879 -0.97,7.434 -2.909,10.666c-1.94,3.233 -4.248,5.472 -6.926,6.719c-2.679,1.247 -5.218,1.87 -7.619,1.87Z" style="fill:#212121;fill-rule:nonzero;"/><path d="M604.398,79.491c0,-4.433 1.201,-7.988 3.602,-10.666c2.401,-2.679 5.587,-4.018 9.558,-4.018c3.879,0 7.019,1.339 9.42,4.018c2.401,2.678 3.601,6.233 3.601,10.666l0,37.679l16.901,0l-0,-37.679c-0.001,-4.433 1.2,-7.988 3.601,-10.666c2.401,-2.679 5.588,-4.018 9.559,-4.018c3.878,0 7.018,1.339 9.419,4.018c2.402,2.678 3.602,6.233 3.602,10.666l0,37.679l16.9,0l0,-40.172c0,-8.774 -2.309,-15.654 -6.926,-20.641c-4.618,-4.987 -10.805,-7.48 -18.563,-7.48c-2.401,-0 -4.963,0.392 -7.688,1.177c-2.724,0.785 -5.264,2.171 -7.619,4.156c-2.355,1.986 -4.317,4.271 -5.887,6.857c-2.032,-3.879 -4.895,-6.88 -8.589,-9.004c-3.694,-2.124 -7.896,-3.186 -12.606,-3.186c-3.786,-0 -7.272,0.808 -10.458,2.424c-3.186,1.616 -5.795,3.809 -7.827,6.58l0,-7.065l-16.9,0l-0,66.354l16.9,0l0,-37.679Z" style="fill:#212121;fill-rule:nonzero;"/></g></svg>